<svg width="130" height="100" viewBox="0 0 130 100" fill="none" xmlns="http://www.w3.org/2000/svg">
<path d="M2.92633 66.6667V3.00928H20.159C24.7833 3.00928 28.1431 4.14257 30.2385 6.40917C32.3579 8.65165 33.4176 12.365 33.4176 17.5492V20.3342C33.4176 23.3242 32.8758 25.7475 31.7919 27.6042C30.7322 29.4609 29.1065 30.6785 26.9148 31.2572C29.7809 31.9806 31.6956 33.6806 32.659 36.3571C33.6465 39.0096 34.1402 42.2526 34.1402 46.0867C34.1402 50.2096 33.7549 53.8145 32.9842 56.9011C32.2134 59.9874 30.8165 62.3867 28.7934 64.0985C26.7703 65.8107 23.8921 66.6667 20.159 66.6667H2.92633ZM15.3541 26.9893H17.9552C19.1354 26.9893 19.894 26.5312 20.2312 25.6149C20.5684 24.6986 20.737 23.6015 20.737 22.3235V15.9216C20.737 13.872 19.8338 12.8472 18.0275 12.8472H15.3541V26.9893ZM16.6185 55.4545C19.9181 55.4545 21.568 53.8871 21.568 50.7522V42.7952C21.568 40.9867 21.291 39.5641 20.737 38.5271C20.2072 37.4663 19.1956 36.9358 17.7024 36.9358H15.3541V55.3819C15.8839 55.43 16.3054 55.4545 16.6185 55.4545ZM53.0346 67.2452C47.7359 67.2452 43.8345 65.7626 41.3296 62.7967C38.8247 59.8067 37.5721 55.4182 37.5721 49.6311V3.00928H49.9278V49.1248C49.9278 50.1856 49.9881 51.2104 50.1083 52.1993C50.2289 53.1637 50.5057 53.9593 50.9392 54.5863C51.3728 55.2133 52.0712 55.5267 53.0346 55.5267C54.0223 55.5267 54.7326 55.2252 55.1662 54.6222C55.5998 53.9956 55.8646 53.1878 55.9612 52.1993C56.0814 51.2104 56.1417 50.1856 56.1417 49.1248V3.00928H68.497V49.6311C68.497 55.4182 67.2448 59.8067 64.7399 62.7967C62.235 65.7626 58.3333 67.2452 53.0346 67.2452ZM73.3744 66.6667V3.00928H86.0911V55.8159H99.169V66.6667H73.3744ZM102.782 66.6667V3.00928H115.499V55.8159H128.577V66.6667H102.782Z" fill="#F55A03"/>
<path d="M14.3007 74.9037V77.0963H5.33333V84.0593H12.6138V86.2519H5.33333V95.5556H2.64014V74.9037H14.3007ZM16.5472 87.3778C16.5472 85.7185 16.8826 84.2667 17.5534 83.0222C18.2243 81.7581 19.1417 80.7804 20.3058 80.0889C21.4896 79.3974 22.8017 79.0519 24.242 79.0519C25.6626 79.0519 26.8957 79.3581 27.9414 79.9704C28.9871 80.5826 29.7665 81.353 30.2795 82.2815V79.3185H33.0022V95.5556H30.2795V92.5333C29.7467 93.4815 28.9477 94.2715 27.8822 94.9037C26.8365 95.5159 25.6132 95.8222 24.2124 95.8222C22.7721 95.8222 21.4699 95.4667 20.3058 94.7556C19.1417 94.0444 18.2243 93.047 17.5534 91.763C16.8826 90.4789 16.5472 89.0174 16.5472 87.3778ZM30.2795 87.4074C30.2795 86.1826 30.0328 85.1159 29.5396 84.2074C29.0463 83.2989 28.3755 82.6074 27.5271 82.1333C26.6984 81.6396 25.781 81.3926 24.7747 81.3926C23.7685 81.3926 22.851 81.6296 22.0223 82.1037C21.1937 82.5778 20.5327 83.2693 20.0395 84.1778C19.5462 85.0863 19.2996 86.153 19.2996 87.3778C19.2996 88.6222 19.5462 89.7085 20.0395 90.637C20.5327 91.5456 21.1937 92.247 22.0223 92.7407C22.851 93.2148 23.7685 93.4519 24.7747 93.4519C25.781 93.4519 26.6984 93.2148 27.5271 92.7407C28.3755 92.247 29.0463 91.5456 29.5396 90.637C30.0328 89.7085 30.2795 88.6322 30.2795 87.4074ZM43.2951 95.8222C42.0521 95.8222 40.9371 95.6148 39.9508 95.2C38.9642 94.7656 38.1847 94.173 37.6128 93.4222C37.0405 92.6519 36.7248 91.773 36.6656 90.7852H39.4477C39.5265 91.5952 39.9012 92.2567 40.5723 92.7704C41.2626 93.2841 42.1605 93.5407 43.2655 93.5407C44.2914 93.5407 45.1004 93.3137 45.6923 92.8593C46.2842 92.4048 46.5802 91.8322 46.5802 91.1407C46.5802 90.4296 46.2643 89.9063 45.6331 89.5704C45.0016 89.2148 44.025 88.8693 42.7032 88.5333C41.4994 88.2174 40.5131 87.9011 39.7437 87.5852C38.9938 87.2493 38.3427 86.7656 37.7904 86.1333C37.2576 85.4815 36.9911 84.6322 36.9911 83.5852C36.9911 82.7556 37.2377 81.9952 37.7312 81.3037C38.2243 80.6122 38.9246 80.0693 39.8324 79.6741C40.7399 79.2593 41.7757 79.0519 42.94 79.0519C44.7353 79.0519 46.1855 79.5063 47.2905 80.4148C48.3951 81.3233 48.987 82.5678 49.0662 84.1481H46.373C46.3138 83.2989 45.9683 82.6174 45.3372 82.1037C44.7253 81.59 43.8966 81.3333 42.8512 81.3333C41.8841 81.3333 41.1147 81.5407 40.5427 81.9556C39.9704 82.3704 39.6845 82.9137 39.6845 83.5852C39.6845 84.1185 39.852 84.563 40.1876 84.9185C40.5427 85.2544 40.9767 85.5307 41.4898 85.7481C42.0225 85.9456 42.7524 86.173 43.6798 86.4296C44.8437 86.7456 45.7907 87.0618 46.521 87.3778C47.2509 87.6741 47.8724 88.1285 48.3855 88.7407C48.9182 89.353 49.1942 90.153 49.2142 91.1407C49.2142 92.0296 48.9674 92.8296 48.4743 93.5407C47.9808 94.2518 47.2805 94.8148 46.373 95.2296C45.4852 95.6248 44.4589 95.8222 43.2951 95.8222ZM56.3008 81.5407V91.1111C56.3008 91.9011 56.4687 92.4641 56.8039 92.8C57.1394 93.1159 57.7214 93.2741 58.55 93.2741H60.5329V95.5556H58.1061C56.6067 95.5556 55.4821 95.21 54.7322 94.5185C53.9827 93.827 53.6076 92.6915 53.6076 91.1111V81.5407H51.5063V79.3185H53.6076V75.2296H56.3008V79.3185H60.5329V81.5407H56.3008ZM70.3959 81.5407H66.9925V95.5556H64.2993V81.5407H62.198V79.3185H64.2993V78.163C64.2993 76.3456 64.7628 75.0222 65.6903 74.1926C66.6373 73.3433 68.1467 72.9185 70.2184 72.9185V75.1704C69.0346 75.1704 68.1959 75.4074 67.7028 75.8815C67.2292 76.3359 66.9925 77.0963 66.9925 78.163V79.3185H70.3959V81.5407ZM80.6093 95.8222C79.0903 95.8222 77.709 95.4767 76.466 94.7852C75.2429 94.0937 74.2759 93.1159 73.5656 91.8518C72.8753 90.5678 72.5298 89.0863 72.5298 87.4074C72.5298 85.7481 72.8849 84.2863 73.5952 83.0222C74.3255 81.7381 75.3117 80.7604 76.5547 80.0889C77.7978 79.3974 79.1887 79.0519 80.7277 79.0519C82.2667 79.0519 83.6576 79.3974 84.9006 80.0889C86.1436 80.7604 87.1203 81.7285 87.8306 82.9926C88.5609 84.2567 88.9256 85.7285 88.9256 87.4074C88.9256 89.0863 88.5509 90.5678 87.801 91.8518C87.0711 93.1159 86.0748 94.0937 84.8119 94.7852C83.5492 95.4767 82.1483 95.8222 80.6093 95.8222ZM80.6093 93.4519C81.5763 93.4519 82.4838 93.2248 83.3321 92.7704C84.1807 92.3159 84.8614 91.6344 85.3742 90.7259C85.9069 89.8174 86.1732 88.7111 86.1732 87.4074C86.1732 86.1037 85.9169 84.9974 85.4038 84.0889C84.891 83.1804 84.22 82.5085 83.3913 82.0741C82.5626 81.6196 81.6651 81.3926 80.6981 81.3926C79.7118 81.3926 78.804 81.6196 77.9753 82.0741C77.1666 82.5085 76.5155 83.1804 76.022 84.0889C75.5289 84.9974 75.2821 86.1037 75.2821 87.4074C75.2821 88.7307 75.5189 89.847 75.9924 90.7556C76.4859 91.6641 77.137 92.3456 77.9457 92.8C78.7548 93.2344 79.6427 93.4519 80.6093 93.4519ZM99.54 95.8222C98.0206 95.8222 96.6396 95.4767 95.3966 94.7852C94.1732 94.0937 93.2066 93.1159 92.4963 91.8518C91.8056 90.5678 91.4605 89.0863 91.4605 87.4074C91.4605 85.7481 91.8156 84.2863 92.5259 83.0222C93.2558 81.7381 94.2424 80.7604 95.4854 80.0889C96.7284 79.3974 98.1194 79.0519 99.6584 79.0519C101.197 79.0519 102.588 79.3974 103.831 80.0889C105.074 80.7604 106.051 81.7285 106.761 82.9926C107.491 84.2567 107.856 85.7285 107.856 87.4074C107.856 89.0863 107.482 90.5678 106.732 91.8518C106.002 93.1159 105.005 94.0937 103.743 94.7852C102.48 95.4767 101.079 95.8222 99.54 95.8222ZM99.54 93.4519C100.507 93.4519 101.414 93.2248 102.263 92.7704C103.111 92.3159 103.792 91.6344 104.305 90.7259C104.838 89.8174 105.104 88.7111 105.104 87.4074C105.104 86.1037 104.848 84.9974 104.334 84.0889C103.821 83.1804 103.151 82.5085 102.322 82.0741C101.493 81.6196 100.595 81.3926 99.6288 81.3926C98.6421 81.3926 97.7347 81.6196 96.906 82.0741C96.0969 82.5085 95.4458 83.1804 94.9527 84.0889C94.4596 84.9974 94.2128 86.1037 94.2128 87.4074C94.2128 88.7307 94.4496 89.847 94.9231 90.7556C95.4162 91.6641 96.0673 92.3456 96.8764 92.8C97.6855 93.2344 98.5733 93.4519 99.54 93.4519ZM110.391 87.3778C110.391 85.7185 110.727 84.2667 111.397 83.0222C112.068 81.7581 112.986 80.7804 114.15 80.0889C115.334 79.3974 116.655 79.0519 118.116 79.0519C119.378 79.0519 120.552 79.3481 121.637 79.9407C122.722 80.5137 123.551 81.2741 124.123 82.2222V73.6296H126.846V95.5556H124.123V92.5037C123.591 93.4715 122.802 94.2715 121.756 94.9037C120.71 95.5159 119.487 95.8222 118.086 95.8222C116.646 95.8222 115.334 95.4667 114.15 94.7556C112.986 94.0444 112.068 93.047 111.397 91.763C110.727 90.4789 110.391 89.0174 110.391 87.3778ZM124.123 87.4074C124.123 86.1826 123.877 85.1159 123.384 84.2074C122.89 83.2989 122.219 82.6074 121.371 82.1333C120.542 81.6396 119.625 81.3926 118.619 81.3926C117.612 81.3926 116.695 81.6296 115.866 82.1037C115.038 82.5778 114.377 83.2693 113.883 84.1778C113.39 85.0863 113.144 86.153 113.144 87.3778C113.144 88.6222 113.39 89.7085 113.883 90.637C114.377 91.5456 115.038 92.247 115.866 92.7407C116.695 93.2148 117.612 93.4519 118.619 93.4519C119.625 93.4519 120.542 93.2148 121.371 92.7407C122.219 92.247 122.89 91.5456 123.384 90.637C123.877 89.7085 124.123 88.6322 124.123 87.4074Z" fill="#F55A03"/>
</svg>
